<?xml version="1.0" encoding="UTF-8" standalone="no"?>
<svg
   xmlns:dc="http://purl.org/dc/elements/1.1/"
   xmlns:cc="http://creativecommons.org/ns#"
   xmlns:rdf="http://www.w3.org/1999/02/22-rdf-syntax-ns#"
   xmlns:svg="http://www.w3.org/2000/svg"
   xmlns="http://www.w3.org/2000/svg"
   viewBox="0 0 816 1056"
   height="1056"
   width="816"
   xml:space="preserve"
   id="svg2"
   version="1.1"><metadata
     id="metadata8"><rdf:RDF><cc:Work
         rdf:about=""><dc:format>image/svg+xml</dc:format><dc:type
           rdf:resource="http://purl.org/dc/dcmitype/StillImage" /></cc:Work></rdf:RDF></metadata><defs
     id="defs6"><clipPath
       id="clipPath18"
       clipPathUnits="userSpaceOnUse"><path
         id="path16"
         d="M 0,792 H 612 V 0 H 0 Z" /></clipPath></defs><g
     transform="matrix(1.3333333,0,0,-1.3333333,0,1056)"
     id="g10"><g
       id="g12"><g
         clip-path="url(#clipPath18)"
         id="g14"><g
           transform="translate(70,555)"
           id="g20"><path
             id="path22"
             style="fill:#231f20;fill-opacity:1;fill-rule:nonzero;stroke:none"
             d="m 0,0 c 5.135,-1.178 10.394,-2.37 15.75,-3.523 5.367,-1.188 10.838,-2.352 16.417,-3.527 l 17.016,-3.727 8.678,-1.944 c 1.454,-0.327 2.912,-0.659 4.351,-1.075 1.439,-0.412 2.855,-0.908 4.271,-1.383 l 4.584,-1.539 -1.179,-4.525 C 66.137,-35.638 62.531,-50.071 58.846,-64.482 l -11,-43.25 -22,-86.5 -1.3,-5.11 -5.033,1.569 -61,19 -4.424,1.377 1.038,4.516 c 6.8,29.593 13.75,59.269 20.853,88.853 l 2.667,11.089 c 0.889,3.699 1.806,7.367 2.615,11.138 0.402,1.887 0.84,3.745 1.36,5.521 0.518,1.776 1.085,3.501 1.622,5.249 l 3.229,10.414 z m 0,0 -3.81,-23.423 -3.663,-22.961 -1.771,-11.335 c -0.296,-1.877 -0.563,-3.778 -0.878,-5.627 -0.313,-1.849 -0.709,-3.616 -1.14,-5.354 -0.858,-3.479 -1.607,-7.06 -2.385,-10.612 l -2.333,-10.661 c -6.23,-28.415 -12.613,-56.74 -19.147,-85.147 l -3.386,5.893 61,-19 -6.333,-3.541 22,86.5 11,43.25 c 3.648,14.422 7.376,28.823 10.958,43.261 l 3.405,-6.064 c -1.292,0.358 -2.585,0.696 -3.854,1.117 -1.27,0.417 -2.519,0.919 -3.774,1.425 l -7.572,3.056 -15.484,6.273 C 27.578,-10.792 22.216,-8.623 16.75,-6.477 11.273,-4.297 5.698,-2.155 0,0" /></g><g
           transform="translate(135,535)"
           id="g24"><path
             id="path26"
             style="fill:#231f20;fill-opacity:1;fill-rule:nonzero;stroke:none"
             d="m 0,0 c 3.242,1.552 6.523,3.019 9.812,4.473 3.286,1.462 6.593,2.877 9.923,4.237 6.656,2.735 13.354,5.412 20.173,7.811 6.819,2.407 13.702,4.714 20.813,6.614 3.576,0.888 7.275,1.251 11.029,1.682 3.781,0.39 7.599,0.693 11.992,0.128 l 0.203,-0.027 0.283,-0.071 150,-38 1.048,-0.266 0.813,-0.649 c 0.71,-0.568 1.228,-1.021 1.817,-1.536 0.566,-0.502 1.124,-1.007 1.668,-1.525 1.095,-1.029 2.153,-2.092 3.179,-3.193 2.052,-2.204 3.988,-4.551 5.736,-7.122 1.741,-2.573 3.309,-5.371 4.447,-8.521 1.128,-3.132 1.814,-6.699 1.452,-10.403 -0.33,-3.7 -1.848,-7.335 -3.977,-10.158 -0.489,-0.769 -1.1,-1.363 -1.671,-2.02 l -0.875,-0.961 c -0.304,-0.292 -0.621,-0.561 -0.932,-0.841 -0.631,-0.541 -1.246,-1.136 -1.9,-1.619 l -1.975,-1.409 c -0.654,-0.496 -1.34,-0.855 -2.017,-1.259 l -2.04,-1.174 c -1.381,-0.652 -2.758,-1.365 -4.15,-1.954 -1.398,-0.546 -2.792,-1.142 -4.196,-1.636 l -4.218,-1.39 -1.242,-0.409 -1.393,0.344 -77,19 5.6,2.482 c -0.73,-1.332 -1.398,-2.428 -2.114,-3.616 -0.713,-1.155 -1.437,-2.299 -2.178,-3.428 -1.488,-2.254 -3.012,-4.478 -4.619,-6.643 -3.194,-4.343 -6.614,-8.527 -10.292,-12.507 -3.679,-3.978 -7.616,-7.753 -11.853,-11.229 -2.11,-1.749 -4.342,-3.363 -6.547,-5.024 -1.141,-0.786 -2.291,-1.563 -3.471,-2.291 -1.184,-0.723 -2.475,-1.289 -3.722,-1.902 -5.072,-2.328 -10.417,-4.115 -15.903,-5.151 -5.48,-1.07 -11.13,-1.174 -16.573,-0.478 l -2.039,0.28 -1.014,0.146 -0.999,0.236 -3.971,0.949 c -1.294,0.406 -2.568,0.872 -3.842,1.303 -0.631,0.234 -1.28,0.41 -1.892,0.69 l -1.831,0.839 C 54.617,-95.085 50.206,-92.085 46,-89 c 4.742,-2.237 9.459,-4.432 14.468,-5.593 l 1.843,-0.504 c 0.611,-0.172 1.252,-0.237 1.873,-0.361 1.253,-0.211 2.491,-0.456 3.734,-0.64 l 3.755,-0.285 0.931,-0.072 0.937,0.017 1.865,0.043 c 4.952,0.195 9.828,0.942 14.438,2.565 4.613,1.583 8.982,3.78 13.074,6.42 1.009,0.694 2.038,1.331 3.057,2.002 1.011,0.686 2.051,1.323 3.102,1.951 1.022,0.68 2.017,1.404 3.026,2.107 0.998,0.719 1.937,1.534 2.91,2.293 3.826,3.14 7.438,6.597 10.84,10.276 3.401,3.679 6.593,7.583 9.579,11.642 1.502,2.023 2.926,4.103 4.312,6.201 0.69,1.051 1.36,2.11 2.017,3.174 0.631,1.044 1.315,2.18 1.837,3.136 l 1.861,3.405 3.739,-0.923 76.999,-19 -2.634,-0.065 3.74,1.233 c 1.23,0.433 2.404,0.944 3.611,1.408 1.179,0.497 2.281,1.081 3.43,1.61 l 1.588,0.921 c 0.521,0.312 1.083,0.594 1.536,0.955 l 1.438,1.02 c 0.472,0.343 0.849,0.74 1.284,1.101 0.208,0.186 0.429,0.364 0.63,0.553 l 0.526,0.597 c 0.339,0.4 0.759,0.768 0.999,1.198 1.222,1.635 1.913,3.358 2.091,5.23 0.397,3.743 -1.429,8.254 -4.22,12.324 -1.392,2.05 -3.016,4.028 -4.77,5.912 -0.877,0.941 -1.791,1.859 -2.731,2.744 -0.468,0.446 -0.945,0.877 -1.423,1.302 -0.462,0.406 -1,0.867 -1.381,1.171 l 1.861,-0.915 -150,38 0.486,-0.098 c -2.713,0.358 -6.092,0.191 -9.41,-0.178 C 69.494,14.511 66.134,13.68 62.692,13.189 55.775,12.279 48.782,11.069 41.815,9.659 34.854,8.217 27.861,6.738 20.898,5.095 L 10.446,2.602 Z" /></g><g
           transform="translate(91,362)"
           id="g28"><path
             id="path30"
             style="fill:#231f20;fill-opacity:1;fill-rule:nonzero;stroke:none"
             d="M 0,0 C 0.787,0.07 1.51,0.059 2.267,0.092 L 4.43,0.049 c 1.436,-0.035 2.807,-0.155 4.161,-0.299 1.766,-1.504 3.648,-2.857 5.466,-4.294 l 11,-8.5 11,-8.5 5.5,-4.25 c 0.466,-1.291 0.933,-2.582 1.334,-3.958 l 0.598,-2.067 c 0.169,-0.729 0.367,-1.42 0.511,-2.181 -0.773,-0.053 -1.492,-0.036 -2.239,-0.056 l -2.152,0.058 c -1.432,0.041 -2.799,0.166 -4.166,0.292 l -5.5,4.25 -11,8.5 -11,8.5 C 6.094,-11.06 4.31,-9.58 2.409,-8.25 1.929,-6.977 1.467,-5.68 1.07,-4.299 L 0.483,-2.217 C 0.324,-1.476 0.13,-0.779 0,0" /></g><g
           transform="translate(205,403)"
           id="g32"><path
             id="path34"
             style="fill:none;stroke:#231f20;stroke-width:10;stroke-linecap:butt;stroke-linejoin:miter;stroke-miterlimit:10;stroke-dasharray:none;stroke-opacity:1"
             d="m 0,0 -43,-23 c 0,0 -21,-46 17,-43 l 91,46" /></g><g
           transform="translate(179,337)"
           id="g36"><path
             id="path38"
             style="fill:none;stroke:#231f20;stroke-width:10;stroke-linecap:butt;stroke-linejoin:miter;stroke-miterlimit:10;stroke-dasharray:none;stroke-opacity:1"
             d="M 0,0 -22.788,-15 C -22.788,-15 -39,-62 0,-59 L 117,0" /></g><g
           transform="translate(198.1548,287.6592)"
           id="g40"><path
             id="path42"
             style="fill:none;stroke:#231f20;stroke-width:10;stroke-linecap:butt;stroke-linejoin:miter;stroke-miterlimit:10;stroke-dasharray:none;stroke-opacity:1"
             d="m 0,0 c 0,0 -0.155,-51.659 52.845,-32.659 l 69,40" /></g><g
           transform="translate(251,255)"
           id="g44"><path
             id="path46"
             style="fill:#231f20;fill-opacity:1;fill-rule:nonzero;stroke:none"
             d="m 0,0 c 1.725,-4.815 4.057,-9.385 6.866,-13.563 2.807,-4.172 6.253,-7.886 10.24,-10.624 1.983,-1.384 4.147,-2.44 6.38,-3.164 2.23,-0.73 4.541,-1.148 6.868,-1.136 1.154,-0.088 2.325,0.111 3.476,0.164 l 1.727,0.301 0.86,0.147 c 0.285,0.063 0.569,0.151 0.853,0.226 l 1.699,0.458 c 0.564,0.151 1.116,0.394 1.673,0.586 0.553,0.21 1.114,0.384 1.662,0.611 l 1.631,0.737 c 1.101,0.453 2.138,1.042 3.18,1.611 0.528,0.297 1.027,0.529 1.577,0.876 l 1.633,1.008 6.532,4.031 13.063,8.059 c 4.366,2.665 8.677,5.432 13.111,7.969 2.232,1.243 4.47,2.474 6.728,3.67 2.246,1.217 4.491,2.433 6.721,3.679 l 107.084,59.721 -1.587,-1.398 45,60.999 0.671,0.911 0.999,0.533 59.999,32 -2.034,-6.81 -88,161 6.687,-2.042 -55.999,-29 2.146,6.727 22,-42.767 11,-21.384 c 1.837,-3.563 3.779,-7.071 5.602,-10.64 1.807,-3.577 3.419,-7.255 5.111,-10.892 6.684,-14.589 13.456,-29.134 20.068,-43.761 l 9.94,-21.929 9.833,-21.984 -12.167,20.783 -12.06,20.839 c -8.055,13.884 -15.95,27.851 -23.932,41.773 -1.975,3.492 -4.029,6.942 -5.889,10.492 -1.844,3.559 -3.568,7.179 -5.398,10.745 l -11,21.383 -22,42.768 -2.282,4.434 4.429,2.293 55.999,29 4.342,2.248 2.346,-4.29 88,-161 2.423,-4.433 -4.458,-2.377 -59.999,-32 1.669,1.443 -45,-60.999 -0.642,-0.872 -0.945,-0.527 -107.158,-59.761 c -2.233,-1.243 -4.451,-2.515 -6.669,-3.787 -2.206,-1.294 -4.431,-2.552 -6.663,-3.799 -4.491,-2.44 -9.108,-4.651 -13.669,-6.966 l -13.716,-6.875 -6.858,-3.437 -1.715,-0.86 c -0.559,-0.289 -1.24,-0.554 -1.853,-0.831 -1.257,-0.549 -2.504,-1.109 -3.81,-1.523 l -1.934,-0.672 c -0.654,-0.202 -1.33,-0.36 -1.995,-0.535 -0.67,-0.158 -1.321,-0.363 -2.006,-0.48 l -2.05,-0.339 c -0.342,-0.054 -0.68,-0.119 -1.024,-0.161 l -1.043,-0.077 -2.079,-0.144 c -1.402,0.058 -2.793,-0.014 -4.183,0.217 -2.779,0.273 -5.508,1.05 -8.031,2.169 -2.53,1.113 -4.876,2.581 -6.927,4.335 -4.147,3.477 -7.271,7.838 -9.69,12.428 C 2.948,-9.862 1.123,-5 0,0" /></g></g></g></g></svg>