<?xml version="1.0" encoding="UTF-8" standalone="no"?>
<svg
   xmlns:dc="http://purl.org/dc/elements/1.1/"
   xmlns:cc="http://creativecommons.org/ns#"
   xmlns:rdf="http://www.w3.org/1999/02/22-rdf-syntax-ns#"
   xmlns:svg="http://www.w3.org/2000/svg"
   xmlns="http://www.w3.org/2000/svg"
   viewBox="0 0 1600 1600"
   height="1600"
   width="1600"
   xml:space="preserve"
   id="svg2"
   version="1.1"><metadata
     id="metadata8"><rdf:RDF><cc:Work
         rdf:about=""><dc:format>image/svg+xml</dc:format><dc:type
           rdf:resource="http://purl.org/dc/dcmitype/StillImage" /></cc:Work></rdf:RDF></metadata><defs
     id="defs6"><clipPath
       id="clipPath18"
       clipPathUnits="userSpaceOnUse"><path
         id="path16"
         d="M 0,1200 H 1200 V 0 H 0 Z" /></clipPath></defs><g
     transform="matrix(1.3333333,0,0,-1.3333333,0,1600)"
     id="g10"><g
       id="g12"><g
         clip-path="url(#clipPath18)"
         id="g14"><g
           transform="translate(453,724.75)"
           id="g20"><path
             id="path22"
             style="fill:#cccccc;fill-opacity:1;fill-rule:nonzero;stroke:none"
             d="m 0,0 h 682 c 8.25,0 15,-6.75 15,-15 v -70 c 0,-8.25 -6.75,-15 -15,-15 H 0 Z" /></g><g
           transform="translate(500,824.75)"
           id="g24"><path
             id="path26"
             style="fill:#e6e6e6;fill-opacity:1;fill-rule:nonzero;stroke:none"
             d="m 0,0 c -150,-4.75 -385,0 -385,0 -8.25,0 -15,-6.75 -15,-15 v -270 c 0,-8.25 6.75,-15 15,-15 0,0 235,0.25 385,0 154.616,-0.258 600,-150 600,-150 V 150 C 600,150 154.539,4.894 0,0" /></g><g
           transform="translate(453,524.8105)"
           id="g28"><path
             id="path30"
             style="fill:#0071bc;fill-opacity:1;fill-rule:nonzero;stroke:none"
             d="m 0,0 c -147.452,0.143 -338,-0.061 -338,-0.061 -8.25,0 -15,6.75 -15,15 v 270 c 0,8.25 6.75,15 15,15 0,0 190.548,-3.851 338,-1.149 z" /></g><g
           transform="translate(100,599.75)"
           id="g32"><path
             id="path34"
             style="fill:#29abe2;fill-opacity:1;fill-rule:nonzero;stroke:none"
             d="m 0,0 h -35 c -8.25,0 -15,6.75 -15,15 v 120 c 0,8.25 6.75,15 15,15 H 0 Z" /></g><g
           transform="translate(220.5,599.75)"
           id="g36"><path
             id="path38"
             style="fill:#333333;fill-opacity:1;fill-rule:nonzero;stroke:none"
             d="m 0,0 v 0 c -6.875,0 -12.5,5.625 -12.5,12.5 v 125 c 0,6.875 5.625,12.5 12.5,12.5 6.875,0 12.5,-5.625 12.5,-12.5 V 12.5 C 12.5,5.625 6.875,0 0,0" /></g><g
           transform="translate(270.5,599.75)"
           id="g40"><path
             id="path42"
             style="fill:#333333;fill-opacity:1;fill-rule:nonzero;stroke:none"
             d="m 0,0 v 0 c -6.875,0 -12.5,5.625 -12.5,12.5 v 125 c 0,6.875 5.625,12.5 12.5,12.5 6.875,0 12.5,-5.625 12.5,-12.5 V 12.5 C 12.5,5.625 6.875,0 0,0" /></g><g
           transform="translate(170.5,599.75)"
           id="g44"><path
             id="path46"
             style="fill:#333333;fill-opacity:1;fill-rule:nonzero;stroke:none"
             d="m 0,0 v 0 c -6.875,0 -12.5,5.625 -12.5,12.5 v 125 c 0,6.875 5.625,12.5 12.5,12.5 6.875,0 12.5,-5.625 12.5,-12.5 V 12.5 C 12.5,5.625 6.875,0 0,0" /></g><g
           transform="translate(335,424.75)"
           id="g48"><path
             id="path50"
             style="fill:#00527f;fill-opacity:1;fill-rule:nonzero;stroke:none"
             d="m 0,0 h -170 c -8.25,0 -15,6.75 -15,15 v 85 H 15 V 15 C 15,6.75 8.25,0 0,0" /></g><g
           transform="translate(305.5,225.25)"
           id="g52"><path
             id="path54"
             style="fill:#00527f;fill-opacity:1;fill-rule:nonzero;stroke:none"
             d="m 0,0 h -70 c -8.25,0 -15,6.75 -15,15 V 200 H 15 V 15 C 15,6.75 8.25,0 0,0" /></g><g
           transform="translate(291,245.25)"
           id="g56"><path
             id="path58"
             style="fill:#29abe2;fill-opacity:1;fill-rule:nonzero;stroke:none"
             d="m 0,0 v 0 c -6.875,0 -12.5,5.625 -12.5,12.5 v 135 c 0,6.875 5.625,12.5 12.5,12.5 6.875,0 12.5,-5.625 12.5,-12.5 V 12.5 C 12.5,5.625 6.875,0 0,0" /></g><g
           transform="translate(1324.5,799.9927)"
           id="g60"><path
             id="path62"
             style="fill:#fbb03b;fill-opacity:1;fill-rule:nonzero;stroke:none"
             d="M 0,0 38.627,-82.295 125,-95.492 62.5,-159.549 77.254,-250 0,-207.295 -77.254,-250 l 14.754,90.451 -62.5,64.057 86.373,13.197 z" /></g></g></g></g></svg>