<?xml version="1.0" encoding="UTF-8" standalone="no"?>
<svg
   xmlns:dc="http://purl.org/dc/elements/1.1/"
   xmlns:cc="http://creativecommons.org/ns#"
   xmlns:rdf="http://www.w3.org/1999/02/22-rdf-syntax-ns#"
   xmlns:svg="http://www.w3.org/2000/svg"
   xmlns="http://www.w3.org/2000/svg"
   viewBox="0 0 196.44533 133.51067"
   height="133.51067"
   width="196.44533"
   xml:space="preserve"
   id="svg2"
   version="1.1"><metadata
     id="metadata8"><rdf:RDF><cc:Work
         rdf:about=""><dc:format>image/svg+xml</dc:format><dc:type
           rdf:resource="http://purl.org/dc/dcmitype/StillImage" /></cc:Work></rdf:RDF></metadata><defs
     id="defs6"><clipPath
       id="clipPath18"
       clipPathUnits="userSpaceOnUse"><path
         id="path16"
         d="M 0,100.133 H 147.334 V 0 H 0 Z" /></clipPath></defs><g
     transform="matrix(1.3333333,0,0,-1.3333333,0,133.51067)"
     id="g10"><g
       id="g12"><g
         clip-path="url(#clipPath18)"
         id="g14"><g
           transform="translate(73.668,80.1328)"
           id="g20"><path
             id="path22"
             style="fill:#ecc49c;fill-opacity:1;fill-rule:nonzero;stroke:none"
             d="m 0,0 c -12.131,0 -22,-9.869 -22,-22 0,-12.131 9.869,-22 22,-22 12.131,0 22,9.869 22,22 C 22,-9.869 12.131,0 0,0" /></g><g
           transform="translate(140.1392,49.188)"
           id="g24"><path
             id="path26"
             style="fill:#4976a1;fill-opacity:1;fill-rule:nonzero;stroke:none"
             d="M 0,0 C -2.521,4.261 -5.617,7.381 -9.122,9.6 -13.728,5.465 -19.81,2.945 -26.471,2.945 c -5.184,0 -10.013,1.533 -14.072,4.159 -0.45,-6.392 -3.214,-12.154 -7.466,-16.445 3.717,-2.42 6.828,-5.715 9.3,-9.895 1.827,-3.09 3.401,-7.063 4.626,-11.452 H 7.195 C 7.195,-20.236 4.507,-7.621 0,0" /></g><g
           transform="translate(47.7407,56.29)"
           id="g28"><path
             id="path30"
             style="fill:#4976a1;fill-opacity:1;fill-rule:nonzero;stroke:none"
             d="m 0,0 c -4.06,-2.625 -8.889,-4.157 -14.073,-4.157 -6.634,0 -12.692,2.501 -17.291,6.605 -3.885,-2.46 -7.263,-6.005 -9.924,-10.857 -4.058,-7.4 -6.453,-19.518 -6.453,-29.381 H -6.51 c 1.061,3.847 2.387,7.331 3.906,10.102 C 0.03,-22.886 3.41,-19.15 7.5,-16.48 3.229,-12.185 0.451,-6.409 0,0" /></g><g
           transform="translate(98.8481,28.4248)"
           id="g32"><path
             id="path34"
             style="fill:#4976a1;fill-opacity:1;fill-rule:nonzero;stroke:none"
             d="M 0,0 C -2.398,4.056 -5.395,7.163 -9.019,9.363 -13.46,5.828 -19.076,3.708 -25.18,3.708 c -6.061,0 -11.64,2.091 -16.066,5.581 -4.018,-2.438 -7.311,-5.952 -9.834,-10.555 -3.51,-6.4 -6.014,-17.375 -6.25,-27.159 H 6.969 C 6.726,-17.998 3.987,-6.741 0,0" /></g><g
           transform="translate(113.6685,100.1328)"
           id="g36"><path
             id="path38"
             style="fill:#ecc49c;fill-opacity:1;fill-rule:nonzero;stroke:none"
             d="m 0,0 c -12.131,0 -22,-9.869 -22,-22 0,-0.438 0.017,-0.873 0.042,-1.305 4.172,-4.028 7.001,-9.431 7.751,-15.474 C -10.371,-42.032 -5.412,-44 0,-44 c 12.131,0 22,9.869 22,22 C 22,-9.869 12.131,0 0,0" /></g><g
           transform="translate(55.626,76.8276)"
           id="g40"><path
             id="path42"
             style="fill:#ecc49c;fill-opacity:1;fill-rule:nonzero;stroke:none"
             d="m 0,0 c 0.025,0.432 0.042,0.867 0.042,1.305 0,12.131 -9.869,22 -22,22 -12.131,0 -22,-9.869 -22,-22 0,-12.131 9.869,-22 22,-22 5.412,0 10.371,1.968 14.207,5.221 C -7.001,-9.431 -4.171,-4.027 0,0" /></g></g></g></g></svg>