<?xml version="1.0" encoding="UTF-8"?>
<svg width="800" height="800" version="1.1" viewBox="0 0 800.00001 800.00001" xmlns="http://www.w3.org/2000/svg">
 <path d="m17.717 0v800h763.59v-800h-763.59zm71.9 75.334h619.79v571.36h-619.79v-571.36zm315.97 72.508a113.42 113.42 0 0 0 -113.42 113.42 113.42 113.42 0 0 0 113.42 113.42 113.42 113.42 0 0 0 113.42 -113.42 113.42 113.42 0 0 0 -113.42 -113.42zm101.84 224.55a150.89 150.89 0 0 1 -101.84 39.768 150.89 150.89 0 0 1 -101.71 -39.688 192.41 204.56 0 0 0 -90.701 173.35 192.41 204.56 0 0 0 0.13476 3.0371h384.59a192.41 204.56 0 0 0 0.13672 -3.0371 192.41 204.56 0 0 0 -90.57 -173.43h-0.03321z" color="#000000" color-rendering="auto" fill="#404040" image-rendering="auto" shape-rendering="auto" solid-color="#000000" style="isolation:auto;mix-blend-mode:normal"/>
</svg>
